<svg id="Layer_3" enable-background="new 0 0 64 64" height="128" viewBox="0 0 64 64" width="128" xmlns="http://www.w3.org/2000/svg"><path d="m2 34h32v18h-32z" fill="#bf9945"/><path d="m30 62h-24c-2.209 0-4-1.791-4-4v-26c0-4.418 3.582-8 8-8h16c4.418 0 8 3.582 8 8v26c0 2.209-1.791 4-4 4z" fill="#5f9747"/><path d="m30 58v-26c0-4.418-3.582-8-8-8h-12c-4.418 0-8 3.582-8 8v26c0 2.209 1.791 4 4 4h20c2.209 0 4-1.791 4-4z" fill="#7ec95f"/><path d="m2 34h28v18h-28z" fill="#e6e6e6"/><path d="m2 34v8c0 1.105.895 2 2 2 1.105 0 2-.895 2-2v-2c0-1.105.895-2 2-2 1.105 0 2 .895 2 2v6c0 1.105.895 2 2 2 1.105 0 2-.895 2-2v-4c0-1.105.895-2 2-2 1.105 0 2 .895 2 2v2c0 1.105.895 2 2 2 1.105 0 2-.895 2-2v-10" fill="#8d9299"/><path d="m10 16h4v8h-4z" fill="#adadad"/><path d="m14 16h4v8h-4z" fill="#737373"/><path d="m18 16h4v8h-4z" fill="#adadad"/><path d="m22 16h4v8h-4z" fill="#737373"/><path d="m16 8h4v8h-4z" fill="#8d9299"/><path d="m28 12v-4h-15c-1.657 0-3-1.343-3-3 0-1.657 1.343-3 3-3h17c2.209 0 4 1.791 4 4v6z" fill="#adadad"/><path d="m50 58h8v4h-8z" fill="#7d5d3e"/><path d="m30 58h8v4h-8z" fill="#7d5d3e"/><path d="m26 52h36v6h-36z" fill="#a67c52"/><path d="m26 52h33v6h-33z" fill="#c69c6d"/><path d="m57 46h-26c-1.657 0-3-1.343-3-3 0-1.657 1.343-3 3-3h26c1.657 0 3 1.343 3 3 0 1.657-1.343 3-3 3z" fill="#b24e4a"/><path d="m57 43c0-1.657-1.343-3-3-3h-23c-1.657 0-3 1.343-3 3s1.343 3 3 3h23c1.657 0 3-1.343 3-3z" fill="#ed6863"/><path d="m57 52h-26c-1.657 0-3-1.343-3-3 0-1.657 1.343-3 3-3h26c1.657 0 3 1.343 3 3 0 1.657-1.343 3-3 3z" fill="#b24e4a"/><path d="m57 49c0-1.657-1.343-3-3-3h-23c-1.657 0-3 1.343-3 3s1.343 3 3 3h23c1.657 0 3-1.343 3-3z" fill="#ed6863"/><path d="m55 40h-22c-1.657 0-3-1.343-3-3 0-1.657 1.343-3 3-3h22c1.657 0 3 1.343 3 3 0 1.657-1.343 3-3 3z" fill="#b24e4a"/><path d="m55 37c0-1.657-1.343-3-3-3h-19c-1.657 0-3 1.343-3 3s1.343 3 3 3h19c1.657 0 3-1.343 3-3z" fill="#ed6863"/><path d="m38 26h18v8h-18z" fill="#a67c52"/><path d="m38 26h15v8h-15z" fill="#c69c6d"/><path d="m47 22c-1.281 0-2.509-.509-3.414-1.414l-.664-.664c-1.231-1.231-1.922-2.9-1.922-4.64 0-2.066.973-4.011 2.625-5.25.866-.65 1.375-1.669 1.375-2.75v-5.282l6.281 7.852c1.113 1.39 1.719 3.118 1.719 4.899 0 2.08-.826 4.075-2.297 5.546l-.289.289c-.905.905-2.133 1.414-3.414 1.414z" fill="#bf9945"/><path d="m45 5.75v1.531c0 1.082-.509 2.101-1.375 2.75-1.652 1.24-2.625 3.185-2.625 5.25 0 1.741.691 3.41 1.922 4.641l.664.664c.54.54 1.202.918 1.914 1.152.712-.234 1.374-.612 1.914-1.152l.289-.289c1.471-1.471 2.297-3.466 2.297-5.546 0-1.781-.606-3.509-1.719-4.9z" fill="#ffcc5c"/><path d="m62 59h-36c-.553 0-1-.447-1-1v-6c0-.553.447-1 1-1h36c.553 0 1 .447 1 1v6c0 .553-.447 1-1 1zm-35-2h34v-4h-34z"/><path d="m38 63h-8c-.553 0-1-.447-1-1v-4h2v3h6v-3h2v4c0 .553-.447 1-1 1z"/><path d="m58 63h-8c-.553 0-1-.447-1-1v-4h2v3h6v-3h2v4c0 .553-.447 1-1 1z"/><path d="m57 53h-26c-2.206 0-4-1.794-4-4s1.794-4 4-4h26c2.206 0 4 1.794 4 4s-1.794 4-4 4zm-26-6c-1.103 0-2 .897-2 2s.897 2 2 2h26c1.103 0 2-.897 2-2s-.897-2-2-2z"/><path d="m57 47h-26c-2.206 0-4-1.794-4-4s1.794-4 4-4h26c2.206 0 4 1.794 4 4s-1.794 4-4 4zm-26-6c-1.103 0-2 .897-2 2s.897 2 2 2h26c1.103 0 2-.897 2-2s-.897-2-2-2z"/><path d="m55 41h-22c-2.206 0-4-1.794-4-4s1.794-4 4-4h22c2.206 0 4 1.794 4 4s-1.794 4-4 4zm-22-6c-1.103 0-2 .897-2 2s.897 2 2 2h22c1.103 0 2-.897 2-2s-.897-2-2-2z"/><path d="m30 63h-24c-2.757 0-5-2.243-5-5v-26c0-4.963 4.037-9 9-9h16c4.963 0 9 4.037 9 9v2h-2v-2c0-3.859-3.141-7-7-7h-16c-3.859 0-7 3.141-7 7v26c0 1.654 1.346 3 3 3h24z"/><path d="m26 25h-16c-.553 0-1-.447-1-1v-8c0-.553.447-1 1-1h16c.553 0 1 .447 1 1v8c0 .553-.447 1-1 1zm-15-2h14v-6h-14z"/><path d="m20 17h-4c-.553 0-1-.447-1-1v-8c0-.553.447-1 1-1h4c.553 0 1 .447 1 1v8c0 .553-.447 1-1 1zm-3-2h2v-6h-2z"/><path d="m34 13h-6c-.553 0-1-.447-1-1v-3h-14c-2.206 0-4-1.794-4-4s1.794-4 4-4h17c2.757 0 5 2.243 5 5v6c0 .553-.447 1-1 1zm-5-2h4v-5c0-1.654-1.346-3-3-3h-17c-1.103 0-2 .897-2 2s.897 2 2 2h15c.553 0 1 .447 1 1z"/><path d="m13 16h2v8h-2z"/><path d="m17 16h2v8h-2z"/><path d="m21 16h2v8h-2z"/><path d="m26 53h-24c-.553 0-1-.447-1-1v-18c0-.553.447-1 1-1h32v2h-31v16h23z"/><path d="m57 34h-2v-7h-16v7h-2v-8c0-.553.447-1 1-1h18c.553 0 1 .447 1 1z"/><path d="m47 23c-1.534 0-3.036-.622-4.121-1.707l-.664-.664c-1.429-1.428-2.215-3.327-2.215-5.348 0-2.368 1.131-4.629 3.025-6.05.611-.458.975-1.187.975-1.95v-5.281c0-.425.269-.803.669-.943.399-.142.846-.013 1.112.318l6.281 7.852c1.25 1.562 1.938 3.524 1.938 5.524 0 2.362-.92 4.583-2.59 6.253l-.289.289c-1.085 1.085-2.587 1.707-4.121 1.707zm-1-18.149v2.431c0 1.389-.663 2.716-1.774 3.55-1.394 1.044-2.226 2.708-2.226 4.449 0 1.486.578 2.883 1.629 3.934l.664.664c.713.713 1.699 1.121 2.707 1.121s1.994-.408 2.707-1.121l.289-.289c1.292-1.292 2.004-3.011 2.004-4.839 0-1.548-.532-3.065-1.5-4.274z"/><path d="m46 22h2v4h-2z"/><path d="m12 49c-1.654 0-3-1.346-3-3v-6c0-.552-.448-1-1-1s-1 .448-1 1v2c0 1.654-1.346 3-3 3s-3-1.346-3-3v-8h2v8c0 .552.448 1 1 1s1-.448 1-1v-2c0-1.654 1.346-3 3-3s3 1.346 3 3v6c0 .552.448 1 1 1s1-.448 1-1v-4c0-1.654 1.346-3 3-3s3 1.346 3 3v2c0 .552.448 1 1 1s1-.448 1-1v-10h2v10c0 1.654-1.346 3-3 3s-3-1.346-3-3v-2c0-.552-.448-1-1-1s-1 .448-1 1v4c0 1.654-1.346 3-3 3z"/></svg>